<svg xmlns="http://www.w3.org/2000/svg" width="47.75" height="28.65" viewBox="0 0 47.75 28.65">
    <path id="FontAwsome_graduation-cap_" data-name="FontAwsome (graduation-cap)" d="M46.437,70.653,25.626,64.259a5.96,5.96,0,0,0-3.491,0L1.322,70.653a1.757,1.757,0,0,0,0,3.4l3.628,1.115a5.879,5.879,0,0,0-1.334,3.5,2.3,2.3,0,0,0-.19,3.956L1.521,91.2a1.194,1.194,0,0,0,1.165,1.453H6.872A1.194,1.194,0,0,0,8.038,91.2l-1.9-8.571A2.3,2.3,0,0,0,6,78.705a3.52,3.52,0,0,1,1.544-2.74l14.591,4.483a5.967,5.967,0,0,0,3.491,0l20.812-6.394A1.757,1.757,0,0,0,46.437,70.653ZM26.326,82.731a8.352,8.352,0,0,1-4.894,0l-10.82-3.324L9.555,87.873c0,2.637,6.413,4.775,14.325,4.775S38.2,90.51,38.2,87.873l-1.058-8.466Z" transform="translate(-0.005 -63.998)" fill="#6f6f6f"/>
</svg>
