<svg xmlns="http://www.w3.org/2000/svg" width="123.086" height="107.686" viewBox="0 0 123.086 107.686">
    <path id="FontAwsome_comment-dots_" data-name="FontAwsome (comment-dots)" d="M34.563,74.305A7.692,7.692,0,1,0,42.255,82,7.684,7.684,0,0,0,34.563,74.305Zm26.922,0A7.692,7.692,0,1,0,69.176,82,7.684,7.684,0,0,0,61.485,74.305Zm26.922,0A7.692,7.692,0,1,0,96.1,82,7.684,7.684,0,0,0,88.406,74.305ZM61.485,32C27.5,32-.05,54.379-.05,82c0,11.442,4.783,21.922,12.716,30.359-3.582,9.471-11.033,17.5-11.153,17.6a5.771,5.771,0,0,0,4.206,9.735c14.783,0,26.441-6.178,33.436-11.129a74.239,74.239,0,0,0,22.33,3.437c33.988,0,61.535-22.378,61.535-50S95.473,32,61.485,32Zm0,88.456a62.461,62.461,0,0,1-18.845-2.909l-5.456-1.731L32.5,119.134a51.689,51.689,0,0,1-13.821,6.971,60.292,60.292,0,0,0,4.783-9.663l2.548-6.754-4.952-5.24C16.7,99.809,11.487,92.141,11.487,82c0-21.2,22.427-38.459,50-38.459s50,17.259,50,38.459S89.055,120.456,61.485,120.456Z" transform="translate(0.066 -32)" fill="#0a9100"/>
</svg>