<svg xmlns="http://www.w3.org/2000/svg" width="134.608" height="107.686" viewBox="0 0 134.608 107.686">
    <path id="FontAwsome_chalkboard-teacher_" data-name="FontAwsome (chalkboard-teacher)" d="M43.746,74.034a4.812,4.812,0,0,0-1.485.229,27.745,27.745,0,0,1-8.611,1.453,27.769,27.769,0,0,1-8.613-1.453,4.8,4.8,0,0,0-1.483-.229A23.558,23.558,0,0,0,0,97.721a10.07,10.07,0,0,0,10.1,9.965H57.207a10.07,10.07,0,0,0,10.1-9.965A23.558,23.558,0,0,0,43.746,74.034Zm-10.1-6.73A20.191,20.191,0,1,0,13.459,47.113,20.191,20.191,0,0,0,33.651,67.3ZM124.511,0H43.746a10.279,10.279,0,0,0-10.1,10.43v9.761a26.616,26.616,0,0,1,13.461,3.744V13.461h74.034V74.034H107.685V60.573H80.763V74.034H64.728A26.806,26.806,0,0,1,73.076,87.5h51.435a10.279,10.279,0,0,0,10.1-10.43V10.43A10.279,10.279,0,0,0,124.511,0Z" transform="translate(0.002)" fill="#0a9100"/>
</svg>