<svg xmlns="http://www.w3.org/2000/svg" width="107.491" height="107.491" viewBox="0 0 107.491 107.491">
    <path id="FontAwsome_share-alt-square_" data-name="FontAwsome (share-alt-square)" d="M107.491,43.517v84.457a11.517,11.517,0,0,1-11.517,11.517H11.517A11.517,11.517,0,0,1,0,127.974V43.517A11.517,11.517,0,0,1,11.517,32H95.974A11.517,11.517,0,0,1,107.491,43.517ZM72.94,95.343a13.387,13.387,0,0,0-9.065,3.52L47.569,89.08a13.518,13.518,0,0,0,0-6.669l16.306-9.783a13.4,13.4,0,1,0-3.953-6.582L43.616,75.829a13.436,13.436,0,1,0,0,19.832l16.306,9.783a13.438,13.438,0,1,0,13.019-10.1Z" transform="translate(0 -32)" fill="#0a9100"/>
</svg>