<svg xmlns="http://www.w3.org/2000/svg" width="112.306" height="107.491" viewBox="0 0 112.306 107.491">
    <path id="FontAwsome_star_" data-name="FontAwsome (star)" d="M127.054,35.991,96.385,31.52,82.677,3.727a6.723,6.723,0,0,0-12.049,0L56.92,31.52,26.251,35.991a6.721,6.721,0,0,0-3.716,11.461L44.724,69.074,39.476,99.617a6.713,6.713,0,0,0,9.74,7.074L76.652,92.27l27.436,14.421a6.719,6.719,0,0,0,9.74-7.074l-5.248-30.543,22.188-21.621a6.721,6.721,0,0,0-3.716-11.461ZM97.77,65.547,102.745,94.6,76.652,80.892,50.56,94.6l4.975-29.053L34.417,44.975,63.6,40.735l13.057-26.45,13.057,26.45,29.178,4.24Z" transform="translate(-20.5 0.013)" fill="#0a9100"/>
</svg>